Coordinates
version=1
nRows=8
nColumns=42
inDegrees=yes

Units are S.I. units (second, meters, Newtons, ...)
If the header above contains a line with 'inDegrees', this indicates whether rotational values are in degrees (yes) or radians (no).

endheader
time	pelvis_tilt	pelvis_list	pelvis_rotation	pelvis_tx	pelvis_ty	pelvis_tz	hip_flexion_r	hip_adduction_r	hip_rotation_r	knee_angle_r	knee_adduction_r	knee_angle_r_beta	ankle_angle_r	subtalar_angle_r	mtp_angle_r	hip_flexion_l	hip_adduction_l	hip_rotation_l	knee_angle_l	knee_adduction_l	knee_angle_l_beta	ankle_angle_l	subtalar_angle_l	mtp_angle_l	lumbar_extension	lumbar_bending	lumbar_rotation	arm_flex_r	arm_add_r	arm_rot_r	elbow_flex_r	pro_sup_r	wrist_flex_r	wrist_dev_r	arm_flex_l	arm_add_l	arm_rot_l	elbow_flex_l	pro_sup_l	wrist_flex_l	wrist_dev_l
      0.23000000	     -0.41917727	     -8.09132728	    -12.99872574	     -0.93905088	      0.82635982	      0.27022898	      5.09206086	      7.92706637	    -23.81481088	     21.52437584	     -4.44391626	      0.37567123	     20.34279232	     31.31073022	     -9.47685198	     25.18181329	    -21.28104415	    -30.99234787	     44.36809499	    -10.79774033	      0.77436934	     17.31423380	     18.72355012	     -9.47685198	    -30.67065368	      6.21100578	      5.09828218	     -8.97247449	     -3.05626164	    -12.61361965	    108.32062247	     90.00000001	      0.00000000	      0.00000000	      2.11831642	     -9.47235469	    -20.04440238	     60.94457344	     90.00000001	      0.00000000	      0.00000000
      0.24000000	     -0.47744030	     -8.19863139	    -13.14703016	     -0.93679432	      0.82646729	      0.26909439	      4.95803931	      7.95003433	    -23.84883685	     21.48260217	     -4.44258550	      0.37494214	     20.34354960	     31.21018111	     -9.46778224	     25.17359040	    -21.24067475	    -30.94976143	     43.72766545	    -10.49393032	      0.76319174	     17.25182954	     18.75023435	     -9.46778224	    -30.50740283	      6.30092557	      5.01889834	     -9.09648417	     -3.05747118	    -12.65183908	    108.30679280	     90.00000001	      0.00000000	      0.00000000	      1.98494606	     -9.53777059	    -20.05754975	     60.88493279	     90.00000001	      0.00000000	      0.00000000
      0.25000000	     -0.29289562	     -8.13579110	    -13.23158231	     -0.93440604	      0.82702512	      0.26775844	      4.54949265	      7.72602352	    -23.82544352	     21.34827919	     -4.41125088	      0.37259776	     20.30602206	     31.11535974	     -9.44023217	     24.74811242	    -20.78839853	    -30.64686216	     42.83303269	    -10.11698801	      0.74757745	     16.76118251	     19.05921479	     -9.44023217	    -30.55229495	      6.18063705	      4.84598025	     -9.18946121	     -2.95102965	    -12.73002911	    108.27393939	     90.00000001	      0.00000000	      0.00000000	      1.92647589	     -9.67704818	    -20.04860820	     60.63349474	     90.00000001	      0.00000000	      0.00000000
      0.26000000	     -0.33744174	     -8.24225025	    -13.39572758	     -0.93202635	      0.82728441	      0.26648321	      4.40607710	      7.73360155	    -23.88916442	     21.32962753	     -4.42111716	      0.37227223	     20.29101201	     31.04161492	     -9.43224782	     24.61302175	    -20.72006313	    -30.58557165	     42.29429844	     -9.86267051	      0.73817476	     16.67327566	     19.08610155	     -9.43224782	    -30.37879294	      6.27424128	      4.77742306	     -9.32485380	     -2.95521614	    -12.78080081	    108.24848798	     90.00000001	      0.00000000	      0.00000000	      1.77109070	     -9.74438896	    -20.06835558	     60.53334308	     90.00000001	      0.00000000	      0.00000000
      0.27000000	     -0.27548182	     -8.23921470	    -13.54586175	     -0.92956729	      0.82780451	      0.26508548	      4.15790520	      7.61259598	    -23.96796172	     21.24657141	     -4.47851354	      0.37082263	     20.24858276	     30.96608351	     -9.42241580	     24.24478017	    -20.38451855	    -30.32943203	     41.60653217	     -9.57358744	      0.72617098	     16.46116593	     19.18352878	     -9.42241580	    -30.28786089	      6.23771703	      4.66698208	     -9.47307782	     -2.91213241	    -12.84266355	    108.23080227	     90.00000001	      0.00000000	      0.00000000	      1.61953668	     -9.84197019	    -20.09547092	     60.35377129	     90.00000001	      0.00000000	      0.00000000
      0.28000000	     -0.09928494	     -8.20800182	    -13.63361432	     -0.92707267	      0.82851759	      0.26355394	      3.78566834	      7.38409660	    -24.07985296	     21.18105578	     -4.44506078	      0.36967916	     20.14155609	     30.87998240	     -9.40832006	     23.74427357	    -19.97672404	    -29.98415191	     41.01154213	     -9.26311206	      0.71578644	     16.12815041	     19.25944304	     -9.40832006	    -30.31130519	      6.15657683	      4.48938017	     -9.54587565	     -2.81153721	    -12.91062052	    108.21416204	     90.00000001	      0.00000000	      0.00000000	      1.60387159	     -9.96979035	    -20.10661149	     60.11556405	     90.00000001	      0.00000000	      0.00000000
      0.29000000	     -0.05590123	     -8.25503278	    -13.78735083	     -0.92455793	      0.82912656	      0.26203283	      3.55786031	      7.27367539	    -24.21237412	     21.14235096	     -4.43137579	      0.36900364	     20.05004821	     30.78558559	     -9.39836028	     23.34860380	    -19.74695629	    -29.77919114	     40.53051347	     -9.00423942	      0.70739091	     15.95231778	     19.23939692	     -9.39836028	    -30.21437076	      6.19158236	      4.38055053	     -9.66424539	     -2.76256470	    -12.97689293	    108.19666890	     90.00000001	      0.00000000	      0.00000000	      1.48553833	    -10.07802940	    -20.13208159	     59.92690624	     90.00000001	      0.00000000	      0.00000000
      0.30000000	      0.10367055	     -8.23292473	    -13.87207164	     -0.92197833	      0.82992710	      0.26041686	      3.22142110	      7.07039791	    -24.36676645	     21.10432452	     -4.45383284	      0.36833995	     19.87763236	     30.67172066	     -9.38566196	     22.79790703	    -19.34256460	    -29.42927366	     40.02925114	     -8.74122048	      0.69864223	     15.72077416	     19.17681344	     -9.38566196	    -30.19055095	      6.12697841	      4.22437370	     -9.74201461	     -2.66682152	    -13.04712947	    108.19938743	     90.00000001	      0.00000000	      0.00000000	      1.45787890	    -10.19663378	    -20.14606906	     59.68751928	     90.00000001	      0.00000000	      0.00000000
